<svg width="28" height="29" viewBox="0 0 28 29" fill="none" xmlns="http://www.w3.org/2000/svg">
<path d="M8.5625 18.6875C8.5625 18.8958 8.66667 19 8.875 19H24.3125V21.6875H8.3125C7.60417 21.6875 6.97917 21.4167 6.4375 20.875C5.9375 20.3333 5.6875 19.7083 5.6875 19C5.6875 18.5833 5.79167 18.1667 6 17.75L7.8125 14.4375L3 4.3125H0.3125V1.6875H4.6875C5.52083 3.4375 6.35417 5.20833 7.1875 7C7.39583 7.375 7.875 8.375 8.625 10C9.375 11.5833 9.95833 12.8125 10.375 13.6875H19.75C22.875 8.02083 24.5833 4.89583 24.875 4.3125L27.1875 5.625L22.0625 14.9375C21.5625 15.8542 20.7917 16.3125 19.75 16.3125H9.8125L8.625 18.5L8.5625 18.6875ZM19.8125 23.8125C20.3542 23.2708 20.9792 23 21.6875 23C22.3958 23 23 23.2708 23.5 23.8125C24.0417 24.3542 24.3125 24.9792 24.3125 25.6875C24.3125 26.3958 24.0417 27.0208 23.5 27.5625C23 28.0625 22.3958 28.3125 21.6875 28.3125C20.9792 28.3125 20.3542 28.0625 19.8125 27.5625C19.2708 27.0208 19 26.3958 19 25.6875C19 24.9792 19.2708 24.3542 19.8125 23.8125ZM6.4375 23.8125C6.97917 23.2708 7.60417 23 8.3125 23C9.02083 23 9.64583 23.2708 10.1875 23.8125C10.7292 24.3542 11 24.9792 11 25.6875C11 26.3958 10.7292 27.0208 10.1875 27.5625C9.64583 28.0625 9.02083 28.3125 8.3125 28.3125C7.60417 28.3125 6.97917 28.0625 6.4375 27.5625C5.9375 27.0208 5.6875 26.3958 5.6875 25.6875C5.6875 24.9792 5.9375 24.3542 6.4375 23.8125ZM13.6875 11V7H9.6875V4.3125H13.6875V0.3125H16.3125V4.3125H20.3125V7H16.3125V11H13.6875Z" fill="#041833"/>
</svg>
